<?xml version="1.0" encoding="utf-8"?>
<!-- Generator: Adobe Illustrator 22.0.1, SVG Export Plug-In . SVG Version: 6.00 Build 0)  -->
<svg version="1.1" id="Layer_1" xmlns="http://www.w3.org/2000/svg" xmlns:xlink="http://www.w3.org/1999/xlink" x="0px" y="0px"
	 viewBox="0 0 1063 992.1" style="enable-background:new 0 0 1063 992.1;" xml:space="preserve">
<style type="text/css">
	.st0{fill:url(#SVGID_1_);}
	.st1{fill:url(#SVGID_2_);}
	.st2{fill:#FFFFFF;}
	.st3{fill:url(#SVGID_3_);}
	.st4{fill:#60C6C4;}
</style>
<g>
	
		<radialGradient id="SVGID_1_" cx="566.9493" cy="664.5651" r="297.3228" gradientTransform="matrix(1 0 0 1.0728 0 -194.4429)" gradientUnits="userSpaceOnUse">
		<stop  offset="1.621601e-02" style="stop-color:#DB4755"/>
		<stop  offset="1" style="stop-color:#D3222C"/>
	</radialGradient>
	<ellipse class="st0" cx="566.9" cy="518.5" rx="367.9" ry="218.4"/>
	<g>
		<linearGradient id="SVGID_2_" gradientUnits="userSpaceOnUse" x1="198.7592" y1="518.4365" x2="934.9156" y2="518.4365">
			<stop  offset="0.1818" style="stop-color:#A77D4E"/>
			<stop  offset="0.2179" style="stop-color:#B7905D"/>
			<stop  offset="0.2854" style="stop-color:#D6B578"/>
			<stop  offset="0.3212" style="stop-color:#E5C685"/>
			<stop  offset="0.4667" style="stop-color:#EFD5A4"/>
			<stop  offset="0.5818" style="stop-color:#E5C685"/>
			<stop  offset="0.6408" style="stop-color:#E2C282"/>
			<stop  offset="0.6852" style="stop-color:#D8B77A"/>
			<stop  offset="0.7248" style="stop-color:#C9A56D"/>
			<stop  offset="0.7615" style="stop-color:#B7905C"/>
			<stop  offset="0.7879" style="stop-color:#A77D4E"/>
		</linearGradient>
		<path class="st1" d="M934.9,518.5c-0.1,9.8-1.1,19.5-3.2,29c-2.1,9.5-5.2,18.8-9.3,27.7l-1.5,3.3l-1.6,3.3l-0.8,1.6l-0.9,1.6
			l-1.8,3.2c-2.4,4.2-5,8.4-7.8,12.4c-5.5,8-11.6,15.7-18.3,22.8c-13.3,14.3-28.3,26.9-44.4,38c-16.1,11-33.2,20.6-50.8,28.9
			c-35.4,16.5-73,28.1-111.2,35.7c-38.3,7.6-77.4,11.1-116.4,11.1c-39,0-78.1-3.7-116.4-11.2c-38.3-7.6-75.8-19.2-111.2-35.7
			c-17.7-8.3-34.7-17.8-50.9-28.9c-16.1-11-31.2-23.6-44.5-37.9c-6.7-7.1-12.8-14.8-18.3-22.8c-2.8-4-5.3-8.2-7.8-12.4l-1.8-3.2
			l-0.9-1.6l-0.8-1.6l-1.6-3.3l-1.5-3.3c-4.1-8.9-7.2-18.2-9.3-27.7c-2.2-9.5-3.2-19.3-3.3-29.1c0.1-9.8,1.1-19.5,3.2-29.1
			c2.2-9.5,5.2-18.9,9.3-27.7l1.5-3.3l1.6-3.3l0.8-1.6l0.9-1.6l1.8-3.2c2.4-4.2,5-8.4,7.8-12.4c5.5-8.1,11.6-15.7,18.3-22.9
			c13.3-14.3,28.4-26.9,44.4-38c16.1-11.1,33.2-20.6,50.9-28.9c35.4-16.5,73-28.1,111.3-35.6c38.3-7.5,77.4-11.2,116.4-11.2
			c39,0,78.1,3.6,116.4,11.2c38.3,7.6,75.8,19.2,111.2,35.8c17.7,8.3,34.8,17.9,50.8,28.9c16.1,11.1,31.1,23.7,44.4,38
			c6.6,7.1,12.7,14.8,18.3,22.9c2.8,4,5.3,8.2,7.8,12.4l1.8,3.2l0.9,1.6l0.8,1.6l1.6,3.3l1.5,3.3c4,8.9,7.1,18.2,9.3,27.7
			C933.9,499,934.9,508.7,934.9,518.5z M934.8,518.5c-0.1-9.7-1.1-19.5-3.3-29c-2.2-9.5-5.3-18.8-9.3-27.6l-1.5-3.3l-1.6-3.3
			l-0.8-1.6l-0.9-1.6l-1.8-3.2c-2.4-4.2-5-8.4-7.8-12.4c-5.5-8-11.6-15.7-18.3-22.8c-13.3-14.3-28.3-26.8-44.4-37.8
			c-16.1-11-33.2-20.5-50.8-28.7c-35.4-16.4-72.9-27.9-111.1-35.4c-38.3-7.5-77.2-11.1-116.2-11.1c-39,0-78,3.6-116.2,11.1
			c-38.2,7.6-75.7,19.1-111.1,35.5C322,355.5,305,365,288.9,376c-16.1,11-31.1,23.5-44.4,37.8c-6.6,7.1-12.7,14.7-18.3,22.8
			c-2.8,4-5.3,8.1-7.8,12.4l-1.8,3.2l-0.9,1.6l-0.8,1.6l-1.6,3.3l-1.5,3.3c-4.1,8.8-7.2,18.1-9.3,27.6c-2.2,9.5-3.2,19.2-3.3,28.9
			c0.1,9.7,1.1,19.5,3.2,29c2.1,9.5,5.2,18.8,9.3,27.6l1.5,3.3l1.6,3.3l0.8,1.6l0.9,1.6l1.8,3.2c2.4,4.2,5,8.4,7.7,12.4
			c5.5,8,11.6,15.7,18.2,22.8c13.2,14.3,28.3,26.9,44.4,37.9c16.1,11,33.2,20.5,50.8,28.8c35.4,16.4,72.9,27.9,111.1,35.5
			c38.3,7.5,77.3,11.1,116.2,11c39,0,78-3.7,116.2-11.2c38.2-7.5,75.8-19,111.1-35.4c17.7-8.2,34.7-17.7,50.8-28.7
			c16.1-11,31.1-23.6,44.4-37.8c6.6-7.1,12.8-14.8,18.3-22.8c2.8-4,5.3-8.2,7.8-12.4l1.8-3.2l0.9-1.6l0.8-1.6l1.6-3.3l1.5-3.3
			c4.1-8.9,7.2-18.1,9.3-27.6C933.7,538,934.7,528.2,934.8,518.5z"/>
	</g>
</g>
<g>
	<path class="st2" d="M518.3,679.3c-0.6,0.1,2.2-0.2-15,1.6c-10.2,1.1-17-4.4-18.1-14.4c0-0.1-2-18.1-2-18.1l7-0.8l1.9,17.8
		c0.7,6.1,3.4,9.5,9.8,8.8l15.6-1.7c6.4-0.7,8.8-4.8,8.1-10.8l-4-36.8l7-0.8c0,0,4,37,4,37.1C533.8,671.4,528.5,678.1,518.3,679.3z
		 M497.2,652.5l-0.5-4.5c3.6-0.4,4.2-0.5,4.2-0.5s0-0.2-0.1-0.9c-0.3-2.3-0.5-9.6,6.6-10.3c4-0.4,6.1,1.5,7.8,5l-5,0.5
		c-0.7-0.8-1.1-1.4-2.3-1.2c-2.6,0.3-2.7,3.2-2.5,5.4c0.1,0.7,0.1,1.1,0.1,1.1s0.4,0,11-1.2l0.5,4.5L497.2,652.5z"/>
	<path class="st2" d="M539.5,691.9l-0.7-6.2c2.7-0.5,5.4-2.8,6.3-6.1c1-3.3,0.4-7.4,0.1-9.6c0-0.2-3.5-31.9-3.5-32l7-0.8
		c0,0,0,0.2,4,36.5C553.8,682.4,549.2,691.2,539.5,691.9z"/>
	<path class="st2" d="M559.1,658.4c0-0.1-4-37-4-37.1l7-0.8l3.9,36.8c0.7,6.1,4.4,9.4,10.9,8.7l0.7,6.8
		C567.3,673.9,560.2,668.5,559.1,658.4z"/>
	<path class="st2" d="M600.2,670.3c-5.3,0.6-9.7-1.1-13-4.9c-2.1,4.2-6.3,7-11.2,7.5l-0.7-6.8c3.2-0.3,5.7-2.7,6.7-6.2
		c0.9-3.6,0.3-6.6,0-9.5l0.2,0c-1-12.2,4.1-20.2,13.6-21.2c9.9-1.1,16.8,6,18.2,18.9C615.4,661.1,610.3,669.2,600.2,670.3z
		 M596.4,635.3c-5.7,0.6-8.1,5.9-7,15.6c1,9.5,4.5,13.9,10.2,13.3c5.7-0.6,8.2-5.7,7.2-15C605.6,639.2,602.3,634.6,596.4,635.3z"/>
	<path class="st2" d="M658,664c-3.7,0.4-6.9-0.2-9.5-1.4l0.1,0.6c1,8.8-3.6,17.6-13.3,18.3l-0.7-6.2c2.7-0.5,5.4-2.8,6.3-6.1
		c1-3.3,0.4-7.4,0.1-9.6c0-0.2-3.5-31.9-3.5-32l7-0.8l2.6,24.2c0.5,4.8,4.5,7,10.1,6.4l0.8-0.1l0.7,6.8L658,664z"/>
	<path class="st2" d="M656.8,664.2l-0.7-6.8l34.3-3.7l-1.3-12.2c-0.7-6-4.2-8.6-10.7-7.9l-21.5,2.3l-1.3-12
		c-0.9-8,4.6-13.9,13.9-14.9l14.5-1.6l0.7,6.8l-14.5,1.6c-5.2,0.6-8.3,3.7-7.9,7.6l0.5,4.9l14.8-1.6c10.2-1.1,16.9,3.8,17.8,13.8
		l1.4,12.5l7.1-0.8l0.7,6.8L656.8,664.2z"/>
	<path class="st2" d="M702.4,674.1l-0.8-7.6l7-0.8l0.8,7.6L702.4,674.1z M728.3,656.4c-5.6,0.5-10.1-0.8-13.2-3.9
		c-2.2,3.7-6.2,6-11.6,6.6c-0.1,0-1.1,0.1-1.2,0.1l-0.7-6.8c0.1,0,1.1-0.1,1.2-0.1c5.2-0.6,8-3.9,7.5-8.9l-2.6-23.5l7-0.8
		c0,0,2.6,23.5,2.6,23.8c0.5,5,4.5,7.4,10.3,6.8c0.1,0,1-0.1,1.2-0.1l0.7,6.8C729.2,656.3,728.3,656.4,728.3,656.4z M713.6,672.9
		l-0.8-7.6l7-0.8l0.8,7.6L713.6,672.9z"/>
	<path class="st2" d="M727.4,656.5l-0.7-6.8c6.6-0.7,9.1-4.6,8.4-10.8l-2.4-21.8l7-0.8c0,0.1,2.4,22,2.4,22.1
		C743.3,648.5,737.8,655.4,727.4,656.5z M738.1,670.2l-0.8-7.6l7-0.8l0.8,7.6L738.1,670.2z"/>
</g>
<g>
	
		<linearGradient id="SVGID_3_" gradientUnits="userSpaceOnUse" x1="766.0784" y1="1275.9467" x2="1298.8264" y2="1275.9467" gradientTransform="matrix(0.9533 -0.3021 0.3021 0.9533 -537.8668 -390.548)">
		<stop  offset="0.1818" style="stop-color:#A77D4E"/>
		<stop  offset="0.2179" style="stop-color:#B7905D"/>
		<stop  offset="0.2854" style="stop-color:#D6B578"/>
		<stop  offset="0.3212" style="stop-color:#E5C685"/>
		<stop  offset="0.5791" style="stop-color:#EFD5A4"/>
		<stop  offset="0.5818" style="stop-color:#E5C685"/>
		<stop  offset="0.6408" style="stop-color:#E2C282"/>
		<stop  offset="0.6851" style="stop-color:#D8B77A"/>
		<stop  offset="0.7235" style="stop-color:#CAA66D"/>
		<stop  offset="0.7493" style="stop-color:#BD9762"/>
		<stop  offset="0.7879" style="stop-color:#A77D4E"/>
	</linearGradient>
	<path class="st3" d="M718,475.9c-10.5-18.2-25.4-33.9-42.9-45.4c-3.2-2.1-6.9-4.6-7.6-8.4c-1.4-8,10.1-11.2,18.1-9.7
		c9.8,1.8,19.2,5.5,27.6,10.8c2.8,1.8,6.4,3.7,9.1,1.9c1.4-0.9,2.1-2.5,2.6-4.1c3.1-10,0.1-20.7,0.8-31.2
		c0.7-10.4,8.3-22.3,18.6-20.5c5.7,1,9.8,5.9,13.5,10.4c6.2,7.9,12.5,15.7,18.7,23.6c0.9,1.2,1.9,2.4,3.4,2.9
		c4.2,1.5,7.4-3.7,9.1-7.7c3.5-8.4,8.6-16.3,14.8-23c3-3.2,6.4-6.3,10.6-7.3c4.2-1.1,9.4,0.5,11.1,4.6c1.6,3.7-0.1,7.9-1.7,11.7
		c-10.8,26.4-11.2,56.9-1.1,83.7c1.2,3.1,2.3,7.1-0.2,9.3c-1.7,1.6-4.4,1.3-6.7,1c-26.6-3.5-53.8-2.9-80.3,1.7
		c-0.2,5.5,7.4,7.1,12.9,7c18.6-0.4,37.2,1.3,55.3,5.2c5.1,1.1,11.5,4.4,10.2,9.5c-1.1,4.1-6.5,5-10.7,5.1
		c-19.2,0.4-38.4,0.8-57.6,1.2c1.3,0,12.2,3.8,16.2,4.3c27.6,3,56,12.8,69.9,38.6c30.9,57.3-13.1,115.2-59.7,146.8
		c-45.4,30.8-100.1,39.1-153.7,42.2c-56.3,3.3-113.1-2.3-167.7-16.3c-28-7.2-54.7-18.3-81.7-28.3c51.3,20.2,106.5,30.5,161.6,31.6
		c53.4,1.1,108-1.2,159.9-14.6c18.7-4.8,37-11.2,54.4-19.6c37.1-18.1,74.2-53.3,77.8-96.7c3.6-43.8-34.5-80.2-77.7-77.5
		c-5,0.3-11.8-0.5-12.5-5.5c-0.7-5,5.6-7.7,10.6-8.4c13.9-2.1,28-2.7,42-2c2.8,0.2,5.8,0.3,8.3-1.1s3.6-5.3,1.5-7.1
		c-1.1-0.9-2.5-1.1-3.9-1.2c-20.1-1.9-40.3-2.7-60.4-2.3c-6.1,0.1-14.8-2.4-13.6-8.4c0.8-4.1,5.8-5.5,9.9-6.1
		c29.9-4.3,60.4-5.2,90.5-2.6c-11.5-31.6-10.7-67.5,2.1-98.6c-9.1,2.8-14.5,12-17.7,20.9s-5.2,18.6-11,26c-1.5,1.9-3.4,3.7-5.8,3.9
		c-3.7,0.4-6.5-3-8.6-6c-5.4-7.6-10.7-15.2-16.1-22.8c-3.8-5.4-9.3-11.5-15.8-10.1c-7.7,1.7-9.2,11.9-8.9,19.8
		c0.3,8.2,0.5,16.4,0.8,24.6c0.1,3.8-0.1,8.4-3.2,10.6c-2.7,1.9-6.3,1.2-9.4,0c-17.1-6.5-31.2-26.1-48.8-21.1
		C694.8,433.5,710.5,453.3,718,475.9C718,475.9,718,475.9,718,475.9z"/>
</g>
<g>
	<path class="st2" d="M331.6,492.7c23.2,1.8,36.7,14.5,38.9,32.3l0.1,1.1c1.5,15.9-4.7,30-16.7,42c-13.1,13.5-31.8,21.4-53.2,24
		c-9.6,1.2-27.4,1.6-35.7,0.9c-5.6-0.6-12.4-7.5-13.3-14.7c-0.3-2.4-0.6-5-0.3-7.9c4.8-45.2,12.8-107.4,11.4-118.7
		c-0.4-3.3-1.3-7.1-2.6-6.5c-2.8,1-5.6,1.4-6.9,1.5c-0.7-0.1-1-1.2-1.1-3.6c-0.2-2-0.1-4.2,0.6-6.3c2.9-8.3,5.1-8.8,11.2-11.5
		c13.5-5.4,27.6-9.2,42-10.9c3.3-0.4,6.3-0.8,9.6-1c29.1-2.1,46.2,5.3,49.1,29.5C366.2,463.2,353.9,480.2,331.6,492.7z M306.7,509.2
		c-2.2-0.2-4.4,0.1-6.6,0.6c-2.1,0.5-4.3,0.8-6.7,1c-1.5,0.2-3.5,0-5.1-2c-1.9,15.5-4.3,36.8-4.9,51.9c-0.1,3.1,0.3,5.7,0.6,8.3
		c5.8,3.9,13.2,5.2,22,4.4c12-1.5,20-6,25.9-13.8c5.5-7.7,7.5-16.6,6.5-26.2l-0.1-1.1C336.3,516.6,325.5,509.5,306.7,509.2z
		 M334.5,449.7c-1.9-15.7-13.9-19.3-28.9-17.4c-2.4,0.3-11.2,2.5-15.7,3.9c1.9,2.9,2.9,5.6,3.4,9.3c0.3,2.6,0.5,5.7,0.1,9.7
		c-1.1,12.5-2.6,27.3-3.8,38.7c4.7-1,12.7-2.4,17.2-3.9c20.2-6.3,29.4-21.5,27.9-38.8L334.5,449.7z"/>
	<path class="st2" d="M458.5,477.5c0.5-0.1,0.7,0.3,0.8,1.1c1.2,9.5-10.9,25.4-20.1,26.5c-7.2,0.9-12.1-3-13.3-12.4
		c-0.4-3.1-0.7-7.8-0.7-10.6c-7.8,17.1-16.3,26.5-24.8,27.9l-1.4,0.2c-10.4,1.3-15-5.9-16.3-16.6c-2.6-25.2,13.6-56.3,34.5-58.9
		c5.1-0.6,9.5-0.1,13.2,2.1c1.8-2.5,4.5-4,7.8-4.4c4-0.5,8,0.2,12,1.7c-3.9,7.8-7.9,40.9-6.7,50.9c0.3,2.6,0.8,5.6,2.1,5.3
		c2-0.5,3.6-2.6,5.8-5.3C454.8,480,457.2,477.7,458.5,477.5z M428.4,450.9c-2.1-5.2-7.3-6.8-11.4-6.3c-10.4,1.3-17.7,27.6-15.7,44.5
		c0.8,4.5,2.4,6.6,5.1,6.2c2.7-0.3,6.1-5.2,10.2-13.4C422.2,471.5,426.5,459.2,428.4,450.9z"/>
	<path class="st2" d="M478.5,401.4c3.9-0.5,6.7,1.6,7.2,5.7c-0.1-0.7-0.8,25.6-4.3,53.3c13-23.5,23.2-35.9,31.1-36.9
		c4.4-0.5,7.3,3.5,9,11.8c-7.4,0.9-15.3,6.6-24.5,20.2c0,0.4,0,0.9,0,1.5c0.1,1.2,0.6,2.4,1.1,3.7c4.3,9.1,10.1,19.8,19.4,18.6
		c3.3-0.4,6.7-2.1,10.7-5.4c0.2-0.2,0.4-0.3,0.5-0.3c0.1,0,0.3,0.2,0.3,0.5c0,0.4,0,0.7-0.2,0.9c-2.4,9.4-11.3,19.5-19.4,20.5
		c-7.7,1-14.9-6-24.6-25.9c-2.5,6.4-3.9,12.1-6.9,23.1c-1.2,4.9-3.3,7.5-9.9,8.4c-2.6,0.3-5.9,0.3-10.1,0.2
		c6.7-27.1,9.2-56.8,9.4-86.8c-0.1-0.5,0-0.9,0-1.3c-0.3-2.1-1-3.7-2.3-5.8c4.7-3.5,8.8-5,12.8-5.8
		C478,401.4,478.3,401.4,478.5,401.4z"/>
	<path class="st2" d="M583.2,465.5c2.2,3,2.5,7.1,0.5,10.4c-1.9,3-4.8,5.9-8.9,8.2c-6.1,3.8-12.7,6.1-20,7
		c-15.2,1.9-24.8-3.7-27.1-17c-2.3-13.3,0.8-27.1,8.5-37.9c7.4-11.5,17.9-18.5,29.5-19.9c10.9-1.3,16.7,2.7,17.7,11.6
		c1.1,8.9-9,21.6-25.8,30c-4,2-12,6.8-11.7,10.2c0.3,3.1,1,5.8,2.4,7.4c3.4,3.8,8.4,5.7,13.2,4.4
		C570.7,477.8,577.3,472.9,583.2,465.5z M546.2,459c1.6-5.1,5.3-7.3,9.8-10.5c7.8-5.6,9.6-10.2,10.3-14.9c0.7-4.7-1.3-8.4-6-7.8
		c-7,0.9-11.8,10.6-13.6,27.2C546.8,453,546.5,455.2,546.2,459z"/>
	<path class="st2" d="M647.6,461.4c-3.2,9.3-13.6,19.3-20.5,20.1c-7.3,0.9-12.6-2.3-12.6-11c-0.1-5.4,1.3-13.8,2.2-18.5
		c0.7-4.8,4.5-22.5,4.9-25.3c0.5-2.7,0.8-4.1-0.8-3.6c-1.1,0.4-6.3,1.8-11.3,2.5c-0.6,2.7-1.5,6.9-3.3,11.5
		c-1.8,4.5-4.3,9.1-6.9,11.7c-3.1,2.9-6.8,4.5-10.5,3.5c5.7-8.6,7.3-15.4,6.7-25c-12.8-3-4.2-21.3,1.4-20.8c0.3,3.4-6,13.4,25.9,3.8
		c4.2-1.6,13.3-5.1,15.9,2.5c2.9,8.6-1.4,19.3-3.1,28.4c-1.3,7.7-3,14.4-2.8,19.1c0.2,2.9,0.4,6.2,1.9,5.8c1.4-0.3,3.6-2.8,6.3-5.7
		C649.2,449.5,651.5,450.1,647.6,461.4z"/>
</g>
<g>
	<path class="st2" d="M482.6,506.3c2.5-0.6,6.5-0.7,6.3,3c-0.1,3.3-0.7,10.7-1.4,18.1c-2.8,31.3-2.6,61.4-1.3,70.8
		c0.7,5.4,3,10.5,6.3,14.8c-1.7,1.4-9.4,7.2-15.2,7.9c-5.2,0.7-8.8-1-9.9-7.6c-1.2-8.7,0.7-47.6,0.3-67c-1,1.9-2.1,3.9-3.2,6.2
		c-10.5,22.4-21,45.5-24.5,57.8c-2.7,3.2-6.1,6.1-11.3,6.8c-2.7,0.4-4.3-1.3-5.7-4.7c-2-5.5-12.2-34.1-19.2-53.4
		c-0.5-1.2-0.9-2.2-1.3-2.8c-0.4,2.2-0.5,4.5-0.8,6.7c-3.4,25.9-5.9,49.8-4.9,57.1c0.5,3.7,1.6,6.2,3,8.5c-4.7,2.4-8.8,3.8-12.5,4.3
		c-5.9,0.8-8.9-0.9-9.7-5c-0.2-1.4-0.2-3.8,0.2-7.2c0.8-6.7,7.6-52.7,8.8-62.2c1.1-8.9,2.2-17.8,3.4-26.7c-0.1-3.1-1-5-2.8-7.9
		c5.3-4,9.8-5.8,14.3-6.7c3.8-0.8,7.9,1.2,8.9,5c2.6,10.4,12.1,38,21.3,63.8c0.7,1.8,1.5,3.7,2.3,5.3c0.7-1.1,1.5-2.6,2.4-4.6
		c5.9-13.4,13.9-30.2,21-45.5c5.2-10.6,8.5-19.1,9.9-24.5c0.4-1.2,0.5-2.5-0.2-3.6C470.5,509.5,473.5,508.3,482.6,506.3z"/>
	<path class="st2" d="M582.8,578.1c0.6-0.1,0.8,0.3,0.9,1.2c1.4,10.3-11.5,27.7-21.5,29c-7.8,1.1-13.2-3.1-14.6-13.2
		c-0.5-3.4-0.9-8.5-0.8-11.5c-8.3,18.6-17.3,28.9-26.6,30.6l-1.5,0.2c-11.3,1.5-16.4-6.3-17.9-17.8c-3.1-27.3,14-61.2,36.7-64.3
		c5.5-0.7,10.3-0.2,14.4,2.1c1.9-2.7,4.9-4.4,8.4-4.9c4.4-0.6,8.6,0.1,13,1.7c-4.2,8.5-8,44.5-6.6,55.3c0.4,2.8,1,6.1,2.4,5.7
		c2.2-0.6,3.9-2.8,6.2-5.9C578.9,581,581.4,578.3,582.8,578.1z M549.8,549.7c-2.3-5.6-8-7.2-12.4-6.7c-11.3,1.5-18.9,30.1-16.4,48.5
		c1,4.9,2.7,7.1,5.6,6.7s6.5-5.8,10.9-14.7C543.3,572.1,547.9,558.7,549.8,549.7z"/>
	<path class="st2" d="M645.3,577.6c-3.4,10.1-14.5,21.1-22,22.1c-7.9,1.1-13.7-2.3-13.8-11.8c-0.2-5.9,1.3-15,2.2-20.1
		c0.7-5.3,4.6-24.5,5-27.5c0.5-2.9,0.8-4.4-1-3.9c-1.2,0.5-6.8,2.1-12.3,2.8c-0.6,2.9-1.6,7.5-3.5,12.5c-1.9,4.9-4.5,10-7.3,12.8
		c-3.3,3.2-7.4,5-11.4,4c6-9.4,7.8-16.9,6.9-27.2c-13.9-3.1-4.9-23,1.2-22.6c0.4,3.7-6.3,14.6,28.1,3.8c4.5-1.8,14.3-5.7,17.3,2.5
		c3.3,9.3-1.3,21-3,30.9c-1.3,8.4-3.1,15.6-2.8,20.8c0.3,3.1,0.5,6.7,2.1,6.3c1.5-0.3,3.9-3.1,6.8-6.2
		C646.9,564.6,649.4,565.2,645.3,577.6z"/>
	<path class="st2" d="M671.1,486.2c4.2-0.6,7.3,1.6,7.9,6.1c-0.1-0.7-0.5,27.8-3.9,57.8c13.7-25.7,24.7-39.3,33.3-40.4
		c4.8-0.7,8,3.7,9.9,12.7c-8,1.1-16.5,7.4-26.3,22.2c0.1,0.4,0,1,0.1,1.6c0.2,1.3,0.6,2.6,1.3,4c4.8,9.8,11.2,21.3,21.2,20
		c3.5-0.5,7.3-2.4,11.5-6c0.3-0.2,0.4-0.3,0.5-0.4c0.1,0,0.3,0.2,0.4,0.5c0.1,0.4-0.1,0.7-0.2,1c-2.5,10.2-12,21.3-20.8,22.5
		c-8.3,1.1-16.2-6.3-27-27.8c-2.6,7-4.1,13.2-7.2,25.1c-1.3,5.3-3.5,8.2-10.7,9.2c-2.8,0.4-6.4,0.4-11,0.3c6.9-29.5,9.3-61.7,9-94.3
		c-0.1-0.6,0-1,0-1.4c-0.3-2.3-1.1-4-2.6-6.3c5.1-3.8,9.4-5.6,13.8-6.5C670.6,486.2,670.8,486.2,671.1,486.2z"/>
</g>
<g>
	<path class="st4" d="M337.9,494.2c-1.2,0.7-2.4,1.4-3.7,2.1c11.8,0.9,21.1,4.7,27.7,10.5C356.4,500.6,348.3,496.2,337.9,494.2z"/>
	<path class="st4" d="M308.6,577.1c12-1.5,20-6,25.9-13.8c5.5-7.7,7.5-16.6,6.5-26.2l-0.1-1.1c-0.9-7.2-3.7-12.6-8.3-16.4
		c2.8,3.5,4.6,7.9,5.3,13.4l0.1,1.1c1,9.6-1,18.5-6.5,26.2c-5.9,7.8-13.9,12.3-25.9,13.8c-7.4,0.7-13.8-0.1-19.1-2.7
		c0.1,0.5,0.1,0.9,0.2,1.4C292.4,576.7,299.9,578,308.6,577.1z"/>
	<path class="st4" d="M337.1,453.4c-0.8-6.4-3.3-10.8-7-13.7c2,2.7,3.4,6.2,4,10.7l0.2,1.5c1.5,17.3-7.7,32.5-27.9,38.8
		c-3.5,1.1-9.2,2.3-13.8,3.2c-0.1,1.3-0.3,2.5-0.4,3.7c4.7-1,12.7-2.4,17.2-3.9c20.2-6.3,29.4-21.5,27.9-38.8L337.1,453.4z"/>
	<path class="st4" d="M253.1,447.4c0.5-0.1,1.1-0.1,1.9-0.3c0-0.1,0-0.2,0-0.4c-0.2-2-0.1-4.2,0.6-6.3c2.9-8.3,5.1-8.8,11.2-11.5
		c13.5-5.4,27.6-9.2,42-10.9c3.3-0.4,6.3-0.8,9.6-1c17.4-1.2,30.5,0.9,38.8,8c-8-9.4-22.2-12.4-41.8-11c-3.3,0.2-6.3,0.6-9.6,1
		c-14.4,1.8-28.5,5.5-42,10.9c-6.1,2.7-8.2,3.2-11.2,11.5c-0.6,2.1-0.8,4.3-0.6,6.3C252,446.2,252.4,447.2,253.1,447.4z"/>
	<path class="st4" d="M254.4,582c-0.3-2.4-0.6-5-0.3-7.9c4.8-45.2,12.8-107.4,11.4-118.7c-0.4-3.3-1.3-7.1-2.6-6.5
		c-0.3,0.1-0.7,0.2-1,0.3c0.2,1,0.4,2.1,0.6,3.2c1.4,11.3-6.6,73.5-11.4,118.7c-0.3,2.9,0,5.5,0.3,7.9c0.6,4.5,3.5,8.9,6.9,11.7
		C256.3,588.2,254.8,585.1,254.4,582z"/>
</g>
<g>
	<path class="st4" d="M428.5,496.5c-0.4-3.1-0.7-7.8-0.7-10.6c-0.9,1.9-1.7,3.6-2.6,5.3c0.1,0.8,0.2,1.6,0.2,2.3
		c0.7,5.5,2.7,9.1,5.6,10.9C429.8,502.4,428.9,499.8,428.5,496.5z"/>
	<path class="st4" d="M446.3,490.6c0.3,2,0.9,3.7,1.9,3.5c2-0.5,3.6-2.6,5.8-5.3c2-2.8,3.6-4.8,4.8-6c0.2-1.2,0.2-2.3,0.1-3.4
		c-0.1-0.8-0.3-1.2-0.8-1.1c-1.3,0.2-3.7,2.6-7.1,7.5C449.2,487.9,447.8,489.7,446.3,490.6z"/>
	<path class="st4" d="M385.2,497.3c-2.6-25.2,13.6-56.3,34.5-58.9c5.1-0.6,9.5-0.1,13.2,2.1c1.8-2.5,4.5-4,7.8-4.4
		c2.8-0.3,5.5-0.1,8.2,0.5c0.3-0.7,0.5-1.3,0.8-1.9c-4-1.5-7.9-2.2-12-1.7c-3.3,0.4-6,1.9-7.8,4.4c-3.7-2.2-8.1-2.7-13.2-2.1
		c-21,2.6-37.1,33.7-34.5,58.9c0.8,6.7,2.9,12,6.9,14.7C387,506.1,385.8,502,385.2,497.3z"/>
	<path class="st4" d="M427.1,450c0.3,0.5,0.6,1,0.8,1.6c-1.9,8.3-6.2,20.6-11.6,31.1c-4.1,8.2-7.5,13.1-10.2,13.4
		c-0.5,0.1-0.9,0-1.3,0c0.9,2.3,2.3,3.3,4.3,3c2.7-0.3,6.1-5.2,10.2-13.4c5.5-10.5,9.7-22.8,11.6-31.1
		C430.1,452.5,428.7,451,427.1,450z"/>
</g>
<g>
	<path class="st4" d="M484.1,464.1c13-23.5,23.2-35.9,31.1-36.9c1.2-0.1,2.2,0,3.1,0.5c-1.6-2.6-3.6-3.8-6.1-3.5
		c-7.1,0.9-15.9,10.8-26.9,29.5C484.9,457.1,484.5,460.6,484.1,464.1z"/>
	<path class="st4" d="M508.5,477.2c3.2,3.8,7,6.4,11.8,5.8c2.1-0.3,4.2-1.1,6.6-2.5c0.8-1.6,1.4-3.2,1.8-4.8
		c0.1-0.3,0.2-0.6,0.2-0.9c0-0.3-0.2-0.5-0.3-0.5c-0.1,0-0.2,0.2-0.5,0.3c-4,3.3-7.4,5-10.7,5.4C513.9,480.4,511,479.3,508.5,477.2z
		"/>
	<path class="st4" d="M487.6,473.3c-0.2,0.6-0.4,1.1-0.6,1.7c4.6,8.8,8.7,14.5,12.5,17.8C495.9,488.6,492,482.3,487.6,473.3z"/>
	<path class="st4" d="M461.3,502c6.2-26.3,8.6-54.9,8.7-83.9c-0.1-0.5,0-0.9,0-1.3c-0.3-2.1-1-3.7-2.3-5.8c4.7-3.5,8.8-5,12.8-5.8
		c0.3,0,0.5-0.1,0.8-0.1c1.3-0.2,2.5,0,3.6,0.4c-1.1-2.6-3.5-3.8-6.6-3.4c-0.3,0-0.5,0.1-0.8,0.1c-4,0.8-8,2.3-12.8,5.8
		c1.3,2.1,2,3.7,2.3,5.8c0,0.4,0,0.8,0,1.3c-0.1,30-2.7,59.7-9.4,86.8C458.9,502,460.1,502,461.3,502z"/>
</g>
<g>
	<path class="st4" d="M565.6,429.7c0.5,1.3,0.6,2.9,0.3,4.6c-0.7,4.7-2.6,9.3-10.3,14.9c-2.2,1.6-4.2,2.9-5.9,4.4
		c-0.1,1-0.3,2-0.4,3c0,0-0.2,2.3-0.6,6c1.6-5.1,5.3-7.3,9.8-10.5c7.8-5.6,9.6-10.2,10.3-14.9C569.5,433.7,568.4,430.6,565.6,429.7z
		"/>
	<path class="st4" d="M564.2,483.5c8.5-1.9,14.7-6.3,20.4-12.8c-0.2-1.6-0.8-3.1-1.7-4.5c-6,7.3-12.5,12.2-21.6,14.3
		c-3.8,1-7.7,0-10.8-2.3c0.2,0.3,0.4,0.6,0.6,0.8C554.3,482.9,559.3,484.8,564.2,483.5z"/>
	<path class="st4" d="M530.3,477.8c-2.3-13.3,0.8-27.1,8.5-37.9c7.4-11.5,17.9-18.5,29.5-19.9c5.4-0.7,9.6,0,12.5,1.9
		c-2.7-4.1-7.8-5.8-15.5-4.9c-11.6,1.4-22.1,8.4-29.5,19.9c-7.8,10.9-10.8,24.6-8.5,37.9c1,5.9,3.5,10.3,7.2,13.2
		C532.4,485.3,531,481.9,530.3,477.8z"/>
</g>
<g>
	<path class="st4" d="M592.3,427c-2.6-4.8,0.4-12.2,3.8-15.3c-0.2-1.6,0.4-3.4,0.3-4.4C591.3,406.7,583.6,422.1,592.3,427z"/>
	<path class="st4" d="M625.3,414c3-1.1,8.6-3.3,12.5-1.5c-3.1-6.2-11.5-3-15.5-1.5c-13.2,4-19.8,4.6-23.1,3.7
		C599.7,418,603.8,420.5,625.3,414z"/>
	<path class="st4" d="M635.5,466.2c0.2,2.1,0.6,3.9,1.7,3.7c1.4-0.3,3.6-2.8,6.3-5.7c2-2.6,3.6-4.6,4.9-5.9c2-7.5-0.7-6.7-7.9,2.9
		C638.5,463.3,636.8,465.3,635.5,466.2z"/>
	<path class="st4" d="M617.1,474.2c-0.1-5.4,1.3-13.8,2.2-18.5c0.7-4.8,4.5-22.5,4.9-25.3c0.5-2.7,0.8-4.1-0.8-3.6
		c-0.4,0.1-1.1,0.4-2.2,0.6c-0.5,2.9-4.2,20.5-4.9,25.3c-0.9,4.7-2.4,13.1-2.2,18.5c0,5,1.7,8.1,4.6,9.8
		C617.7,479.3,617.1,477.1,617.1,474.2z"/>
	<path class="st4" d="M598,431c-1.1-0.3-2.1-0.7-2.9-1.1c0.3,8.6-1.5,15.1-6.8,23.2c1.6,0.4,3.3,0.4,4.9-0.1
		C597.4,445.7,598.6,439.4,598,431z"/>
</g>
<g>
	<path class="st4" d="M436.7,594.8c0.7-1.1,1.5-2.6,2.4-4.6c5.9-13.4,13.9-30.2,21-45.5c5.2-10.6,8.5-19.1,9.9-24.5
		c0.4-1.2,0.5-2.5-0.2-3.6c3.4-3.5,6.4-4.6,15.5-6.7c1-0.2,2.2-0.4,3.3-0.3c0-3.4-3.9-3.3-6.3-2.7c-9.1,2.1-12.1,3.2-15.5,6.7
		c0.7,1.1,0.6,2.4,0.2,3.6c-1.4,5.4-4.7,13.9-9.9,24.5c-7.1,15.3-15,32.1-21,45.5c-0.5,1.1-1,2.1-1.4,3
		C435.3,591.8,436,593.4,436.7,594.8z"/>
	<path class="st4" d="M380.3,631.6c-0.2-1.4-0.2-3.8,0.2-7.2c0.8-6.7,7.6-52.7,8.8-62.2c1.1-8.9,2.2-17.8,3.4-26.7
		c-0.1-3.1-1-5-2.8-7.9c5.3-4,9.8-5.8,14.3-6.7c1.9-0.4,3.8-0.1,5.4,0.7c-1.4-2.9-5.1-4.4-8.4-3.7c-4.5,0.9-9,2.7-14.3,6.7
		c1.8,2.9,2.7,4.8,2.8,7.9c-1.2,8.9-2.3,17.8-3.4,26.7c-1.2,9.5-8,55.5-8.8,62.2c-0.4,3.4-0.4,5.8-0.2,7.2c0.5,2.2,1.6,3.8,3.5,4.6
		C380.6,632.7,380.5,632.2,380.3,631.6z"/>
	<path class="st4" d="M425.7,616.3c-2-5.5-12.2-34.1-19.2-53.4c-0.5-1.2-0.9-2.2-1.3-2.8c-0.2,1.1-0.3,2.3-0.5,3.4
		c6.8,19.1,16,44.7,17.9,49.8c1,2.5,2.1,4,3.7,4.5C426.1,617.4,425.9,616.9,425.7,616.3z"/>
	<path class="st4" d="M470,617.2c-1.2-8.7,0.7-47.6,0.3-67c-1,1.7-1.9,3.6-2.9,5.7c-0.1,20.5-1.4,50.7-0.3,58.3c0.7,3.8,2.2,6,4.3,7
		C470.7,620.1,470.3,618.8,470,617.2z"/>
</g>
<g>
	<path class="st4" d="M503.3,600.3c-3.1-27.3,14-61.2,36.7-64.3c5.5-0.7,10.3-0.2,14.4,2.1c1.9-2.7,4.9-4.4,8.4-4.9
		c3.1-0.4,6.2-0.2,9.2,0.6c0.3-0.7,0.5-1.4,0.8-1.9c-4.4-1.6-8.6-2.3-13-1.7c-3.5,0.5-6.5,2.2-8.4,4.9c-4.1-2.3-8.9-2.8-14.4-2.1
		c-22.7,3.1-39.8,37-36.7,64.3c1,7,3.2,12.7,7.4,15.7C505.4,609.8,504,605.4,503.3,600.3z"/>
	<path class="st4" d="M569.5,592.5c0.4,2,1,3.7,2,3.4c2.2-0.6,3.9-2.8,6.2-5.9c2.3-3.3,4.1-5.6,5.5-6.9c0.1-1.1,0.1-2.1,0-3.1
		c-0.1-0.8-0.3-1.3-0.9-1.2c-1.4,0.2-3.9,2.8-7.6,8.2C572.8,589.6,571.3,591.6,569.5,592.5z"/>
	<path class="st4" d="M548.4,548.6c0.4,0.6,0.7,1.2,1,1.8c-1.9,9-6.4,22.4-12.2,33.8c-4.4,8.9-8,14.3-10.9,14.7
		c-0.6,0.1-1.1,0.1-1.6-0.1c1,2.3,2.5,3.3,4.6,3.1c3-0.4,6.5-5.8,10.9-14.7c5.8-11.4,10.3-24.8,12.2-33.8
		C551.5,551.3,550.1,549.7,548.4,548.6z"/>
	<path class="st4" d="M550.2,598.8c-0.5-3.4-0.9-8.5-0.8-11.5c-0.8,1.9-1.7,3.6-2.5,5.4c0.1,1.1,0.2,2.2,0.4,3.2
		c0.8,5.8,2.9,9.6,6,11.6C551.8,605.3,550.7,602.5,550.2,598.8z"/>
</g>
<g>
	<path class="st4" d="M632,583.1c0.3,2.1,0.7,3.8,1.9,3.6c1.5-0.3,3.9-3.1,6.8-6.2c2.4-3.2,4.3-5.5,5.7-7c1.7-7.4-1.2-6.3-8.7,4
		C635.4,579.8,633.5,582,632,583.1z"/>
	<path class="st4" d="M620.2,526.1c3.3-1.3,9.5-3.8,13.8-1.7c-3.5-6.6-12.5-3-16.8-1.3c-14.6,4.6-21.8,5.3-25.3,4.2
		C592.6,530.9,597.3,533.4,620.2,526.1z"/>
	<path class="st4" d="M612.1,591.6c-0.2-5.9,1.3-15,2.2-20.1c0.7-5.3,4.6-24.5,5-27.5c0.5-2.9,0.8-4.4-1-3.9c-0.4,0.1-1.1,0.4-2,0.6
		c0,0.1,0,0.2,0,0.3c-0.4,3.1-4.3,22.3-5,27.5c-0.9,5.1-2.4,14.3-2.2,20.1c0.1,5.3,1.9,8.6,4.9,10.4
		C612.8,597.1,612.2,594.7,612.1,591.6z"/>
	<path class="st4" d="M584.7,540.7c-3-5.3,0.3-13.7,4.1-17c-0.1-1.6,0.4-3.3,0.3-4.4C583.6,518.9,575.5,535.4,584.7,540.7z"/>
	<path class="st4" d="M590.9,544.9c-1.1-0.2-2-0.6-2.9-1.1c0.5,9.4-1.4,16.4-7.1,25.3c1.6,0.4,3.3,0.4,4.8-0.1
		C590.3,561,591.6,554.1,590.9,544.9z"/>
</g>
<g>
	<path class="st4" d="M704.2,567.7c3.5,4.1,7.7,6.9,12.9,6.2c2.4-0.3,5-1.4,7.7-3.1c0.7-1.6,1.2-3.1,1.6-4.7c0.1-0.3,0.2-0.6,0.2-1
		c0-0.3-0.2-0.6-0.4-0.5c-0.1,0-0.3,0.2-0.5,0.4c-4.3,3.6-8,5.5-11.5,6C710.4,571.4,707.1,570.1,704.2,567.7z"/>
	<path class="st4" d="M681.6,563.8c-0.2,0.5-0.4,1.1-0.6,1.6c5,9.4,9.5,15.6,13.6,19.2C690.7,580.2,686.4,573.4,681.6,563.8z"/>
	<path class="st4" d="M677.7,553.8c13.7-25.7,24.7-39.3,33.3-40.4c1.3-0.2,2.6,0,3.7,0.6c-1.7-2.8-3.9-4-6.7-3.6
		c-7.7,1-17.4,12.1-29.2,33C678.4,546.9,678.1,550.3,677.7,553.8z"/>
	<path class="st4" d="M653.4,595.5c6.4-28.7,8.6-59.8,8.4-91.3c-0.1-0.6,0-1,0-1.4c-0.3-2.3-1.1-4-2.6-6.3c5.1-3.8,9.4-5.6,13.8-6.5
		c0.3,0,0.6-0.1,0.8-0.1c1.6-0.2,2.9,0,4.1,0.5c-1.3-2.7-3.8-3.9-7.1-3.5c-0.3,0-0.6,0.1-0.8,0.1c-4.3,0.9-8.7,2.6-13.8,6.5
		c1.5,2.2,2.3,4,2.6,6.3c0.1,0.4,0,0.9,0,1.4c0.3,32.6-2.1,64.8-9,94.3C651,595.5,652.2,595.5,653.4,595.5z"/>
</g>
</svg>
